<?xml version="1.0" standalone="no"?>
<!DOCTYPE svg PUBLIC "-//W3C//DTD SVG 20010904//EN"
 "http://www.w3.org/TR/2001/REC-SVG-20010904/DTD/svg10.dtd">
<svg version="1.0" xmlns="http://www.w3.org/2000/svg"
 width="300.000000pt" height="196.000000pt" viewBox="0 0 300.000000 196.000000"
 preserveAspectRatio="xMidYMid meet">
<metadata>
Created by potrace 1.10, written by Peter Selinger 2001-2011
</metadata>
<g transform="translate(0.000000,196.000000) scale(0.100000,-0.100000)"
fill="#000000" stroke="none">
<path d="M0 1940 c0 -8 1334 -16 2080 -12 80 1 319 1 533 2 251 0 387 4 387
10 0 7 -507 10 -1500 10 -993 0 -1500 -3 -1500 -10z"/>
<path d="M2025 1801 c-120 -65 -242 -111 -292 -111 -90 0 -152 -26 -210 -86
-28 -30 -56 -54 -63 -54 -12 0 -46 15 -225 100 -216 103 -215 102 -243 84 -23
-15 -24 -19 -18 -88 6 -75 6 -78 31 -171 18 -66 61 -184 82 -225 7 -14 13 -31
13 -37 0 -7 3 -13 8 -13 9 0 46 -62 44 -72 -1 -5 2 -8 7 -8 29 0 14 -40 -48
-133 -67 -101 -161 -273 -161 -295 0 -7 -4 -20 -10 -30 -9 -15 -32 -73 -31
-79 0 -2 -5 -17 -10 -35 -5 -18 -12 -49 -15 -68 -3 -19 -8 -38 -10 -42 -7 -11
49 -70 93 -98 23 -15 39 -31 35 -35 -4 -5 -2 -5 5 -1 6 3 14 2 18 -4 3 -5 43
-36 88 -68 45 -32 136 -98 202 -145 114 -83 155 -101 171 -76 8 13 7 125 -2
189 -16 124 -27 286 -20 313 3 13 11 24 18 24 69 1 271 51 288 72 3 3 23 15
45 26 138 68 295 234 390 410 20 39 41 74 46 79 5 6 9 18 9 27 0 10 7 25 16
33 8 9 13 16 10 16 -3 0 6 24 18 53 36 80 41 129 18 151 -23 20 -30 18 -207
-39 -58 -18 -125 -37 -150 -41 l-45 -6 -1 68 c0 38 -2 92 -5 121 l-4 52 88 68
c48 37 93 72 100 78 32 24 82 75 82 84 0 50 -74 55 -155 12z m145 -1 c0 -5 -4
-10 -8 -10 -5 0 -67 -45 -138 -101 -71 -55 -135 -104 -142 -108 -11 -6 -11
-23 -3 -86 6 -43 8 -113 5 -157 -4 -43 -4 -78 0 -78 12 0 401 122 419 131 10
6 17 6 17 1 0 -21 -103 -258 -141 -325 -172 -304 -420 -484 -678 -490 l-74 -2
6 -150 c4 -82 13 -204 21 -270 9 -66 16 -126 16 -132 0 -7 -26 7 -57 31 -79
60 -484 355 -499 364 -11 6 -10 19 2 67 48 190 146 388 266 542 l48 63 -36 47
c-45 59 -94 156 -127 253 -28 81 -81 329 -73 338 3 2 11 0 19 -6 14 -12 479
-233 482 -229 1 1 7 16 14 33 16 41 68 93 108 110 18 8 61 14 96 14 58 0 79 7
238 79 166 76 219 93 219 71z"/>
<path d="M1100 1567 c0 -16 70 -198 98 -252 28 -57 93 -167 108 -184 4 -4 107
29 117 39 8 7 60 242 55 245 -13 7 -367 155 -372 155 -3 0 -6 -1 -6 -3z m157
-93 c135 -61 181 -88 178 -104 -28 -161 -41 -190 -87 -190 -32 0 -38 7 -79 75
-32 53 -109 222 -109 239 0 13 42 5 97 -20z"/>
<path d="M1662 1520 c-27 -25 -28 -61 -4 -83 58 -53 137 28 82 83 -26 26 -50
25 -78 0z"/>
<path d="M1669 1167 l-136 -30 -7 -141 c-5 -98 -4 -142 3 -144 6 -2 45 -26 86
-53 42 -27 77 -49 80 -49 2 0 17 24 33 53 40 69 70 172 82 282 12 109 12 115
3 114 -5 -1 -69 -15 -144 -32z m100 -26 c11 -7 12 -22 6 -67 -5 -33 -9 -61
-10 -64 0 -3 -4 -22 -9 -43 -10 -52 -55 -155 -70 -160 -7 -3 -37 12 -67 32
l-54 36 -3 100 c-3 92 9 152 27 141 3 -2 38 4 76 15 82 21 86 21 104 10z"/>
<path d="M1294 1013 c-3 -16 -10 -44 -15 -63 -13 -51 -11 -126 4 -163 16 -36
85 -103 123 -117 50 -19 215 -5 214 18 -1 4 -26 25 -57 47 -60 42 -202 205
-234 268 -11 20 -21 37 -24 37 -3 0 -7 -12 -11 -27z m59 -107 c9 -13 27 -35
39 -49 13 -14 42 -46 66 -71 23 -26 42 -51 42 -57 0 -6 4 -8 9 -5 5 3 14 -1
21 -9 32 -38 -90 -31 -148 8 -46 33 -75 84 -76 140 -2 66 20 85 47 43z"/>
<path d="M1116 783 c-19 -39 -54 -124 -76 -189 l-41 -119 23 -15 c18 -12 262
-200 316 -243 10 -8 11 1 7 44 -2 30 -8 120 -11 201 -5 134 -8 148 -25 153
-46 15 -139 143 -139 192 0 10 -4 24 -9 32 -7 10 -18 -4 -45 -56z m55 -70 c12
-21 45 -62 73 -91 l51 -53 6 -122 c9 -168 8 -168 -116 -69 -5 4 -28 21 -50 37
-87 65 -90 69 -78 117 19 74 76 218 88 218 2 0 13 -17 26 -37z"/>
</g>
</svg>
